# xmcd
#
# Track frame offsets: 
#        183
#        15343
#        28838
#        39565
#        52840
#        67610
#        80355
#        97755
#        113208
#        126708
#        144343
#        165328
#        182660
#        202463
#        223910
#        241000
#        256308
#        272063
#        299880
#
# Disc length: 4232 seconds
#
# Revision: 3
# Processed by: cddbd v1.5.2PL0 Copyright (c) Steve Scherf et al.
# Submitted via: ExactAudioCopyFreeDBPlugin 1.0
#
DISCID=11108613
DTITLE=Gwen McCrae - The Best Of Gwen McCrae
DYEAR=1992
DGENRE=R&B
TTITLE0=Rockin' Chair
TTITLE1=For Your Love
TTITLE2=It's Worth The Hurt
TTITLE3=90% Of Me Is You
TTITLE4=It Keeps On Raining
TTITLE5=He Don't Ever Lose His Grove
TTITLE6=Winners Together Or Losers Apart
TTITLE7=Let Your Love Do The Talkin'
TTITLE8=You And I Were Made For Each Other
TTITLE9=Damn Right It's Good
TTITLE10=Love Without Sex
TTITLE11=Starting All Over Again
TTITLE12=Tonight's The Night
TTITLE13=Let's Straighten It Out
TTITLE14=Love Insurance
TTITLE15=Cradle Of Love
TTITLE16=Maybe I'll Find Somebody New
TTITLE17=The Melody Of Life
TTITLE18=All This Love I'm Giving
EXTD=
EXTT0=
EXTT1=
EXTT2=
EXTT3=
EXTT4=
EXTT5=
EXTT6=
EXTT7=
EXTT8=
EXTT9=
EXTT10=
EXTT11=
EXTT12=
EXTT13=
EXTT14=
EXTT15=
EXTT16=
EXTT17=
EXTT18=
PLAYORDER=
